# xmcd CD database file
#
# Track frame offsets:
#	182
#	22620
#	46220
#	65645
#	91957
#	111557
#	131070
#	152670
#	169407
#	193845
#
# Disc length: 2823 seconds
#
# Revision: 2
# Processed by: cddbd v1.4PL0 Copyright (c) Steve Scherf et al.
# Submitted via: CDex 1.50beta10
#
DISCID=870b050a
DTITLE=Koko Taylor - Jump For Joy
DYEAR=1990
DGENRE=Blues
TTITLE0=Can't Let Go
TTITLE1=Stop Watching Your Enemies
TTITLE2=Hey Baby
TTITLE3=Tired Of That
TTITLE4=It's A Dirt Job
TTITLE5=Jump For Joy
TTITLE6=Time Will Tell
TTITLE7=The Eyes Don't Lie
TTITLE8=Fishing Trip
TTITLE9=I Don't Want No Leftovers
EXTD=YEAR: 1990
EXTT0=
EXTT1=Taylor
EXTT2=St. Holmes
EXTT3=Taylor and Williams
EXTT4=James, Brandon and Carnes
EXTT5=Taylor
EXTT6=Gayten
EXTT7=James, Carpenter and Jawarwicz
EXTT8=McFalls
EXTT9=Johnson
PLAYORDER=
